<svg xmlns="http://www.w3.org/2000/svg" width="22" height="18" fill="none"><path fill="#0065FC" d="M21.352 1.685C20.019 1.095 18.684.87 17.35.87c-4.233 0-8.467 2.262-12.7 2.262a9.92 9.92 0 0 1-3.186-.498 1.118 1.118 0 0 0-.355-.059C.517 2.575 0 3.06 0 3.73v11.516c0 .458.249.892.648 1.069 1.333.59 2.667.815 4.001.815 4.234 0 8.468-2.263 12.702-2.263a9.92 9.92 0 0 1 3.185.498c.119.04.238.06.355.06.592 0 1.109-.484 1.109-1.155V2.754c0-.458-.249-.893-.648-1.07ZM1.65 4.507c.692.183 1.413.275 2.156.324-.202 1.067-1.09 1.871-2.156 1.871V4.507Zm0 10.345v-1.735c1.181 0 2.137.99 2.19 2.229a7.929 7.929 0 0 1-2.19-.494ZM11 12.484c-1.52 0-2.75-1.56-2.75-3.484 0-1.925 1.231-3.485 2.75-3.485 1.518 0 2.75 1.56 2.75 3.485 0 1.925-1.232 3.484-2.75 3.484Zm9.35 1.009a11.245 11.245 0 0 0-1.867-.307c.201-.946.945-1.665 1.867-1.788v2.095Zm0-8.57c-1.062-.142-1.886-1.078-1.919-2.234.672.078 1.31.226 1.919.46v1.774Z"/></svg>