<svg xmlns="http://www.w3.org/2000/svg" width="23" height="22" fill="none"><path fill="#0065FC" d="M13.243 2.063c0 1.139-.904 2.062-2.017 2.062S9.21 3.202 9.21 2.062C9.21.923 10.113 0 11.226 0s2.017.923 2.017 2.063ZM10.89 15.124v5.5c0 .76-.6 1.375-1.345 1.375-.743 0-1.344-.614-1.344-1.375v-9.586L7 13.084a1.329 1.329 0 0 1-1.845.468 1.392 1.392 0 0 1-.46-1.886l2.448-4.164A4.014 4.014 0 0 1 10.6 5.5h1.252a4.02 4.02 0 0 1 3.458 2.002l2.446 4.164a1.393 1.393 0 0 1-.459 1.886 1.328 1.328 0 0 1-1.844-.468l-1.202-2.045v9.586c0 .76-.6 1.375-1.344 1.375-.744 0-1.345-.614-1.345-1.375v-5.5h-.672Z"/></svg>