<svg xmlns="http://www.w3.org/2000/svg" width="18" height="21" fill="none"><path fill="#0065FC" d="M6.4.213a.829.829 0 0 1 1.114.004 31.95 31.95 0 0 1 3.121 3.293c.442-.564.945-1.18 1.487-1.682a.832.832 0 0 1 1.125.004c1.39 1.294 2.567 3.004 3.395 4.627.816 1.6 1.358 3.235 1.358 4.388 0 5.003-4.01 9.23-9 9.23-5.046 0-9-4.23-9-9.234 0-1.506.715-3.345 1.824-5.164C2.945 3.832 4.528 1.907 6.401.213Zm2.668 16.1a4.937 4.937 0 0 0 2.765-.824c1.691-1.153 2.145-3.458 1.129-5.27-.181-.353-.643-.376-.904-.078l-1.013 1.149a.654.654 0 0 1-.992-.02c-.663-.823-1.848-2.294-2.523-3.129a.64.64 0 0 0-.993-.004c-1.358 1.667-2.04 2.717-2.04 3.898.003 2.686 2.036 4.278 4.571 4.278Z"/></svg>